<svg viewBox="0 0 33.073 33.073" xmlns="http://www.w3.org/2000/svg">
    <path
        d="M17.61 25.94c.147-.639.347-1.001.63-1.775.136-.356.775-1.553.636-1.769-.167-.26-1.293-.263-1.457-.318-2.275-.72-1.196-4-.929-5.943.203-1.455.123-4.914 1.786-5 1.006-.057 2.395.429 3.65.63 1.103.182 2.347.339 3.648.533 2.548.371 6.71.28 6.88 2.418.061.864-.3 2.067-.535 3.128-.227 1.049-.295 2.118-.425 3.123-.097.784-.4 2.633-1.26 2.917-1.222.405-3.065-.326-4.17-.53-1.139-.215-2.671-.885-3.957-.638-1.822.35-2.63 2.946-4.497 3.223z"
        fill="#dc2f44" fill-opacity="1" stroke="#dc2f44" stroke-width="0" stroke-linecap="round"
        stroke-linejoin="round" />
    <path
        d="M14.986 28.743c-.862-.342-1.489-.892-2.292-1.567-.389-.326-1.413-1.534-2.08-1.674-.819-.173-3.084.458-4.07.615-1.348.215-3.02.744-3.964.406-1.653-.587-1.575-4.556-1.857-6.885-.142-1.145-.038-2.832.322-3.234.483-.768 3.293-1.004 3.444-1.031 2.642-.279 4.464-.762 7.092-.921 1.579-.097 3.567-.71 3.96.532.582 1.83-1.064 5.41-.018 6.985.23.35 1.235.653 1.357.943.24.6-.232 1.242-.323 1.355-.552.687-2.54.404-2.818.829-.335.515 1.552 3.032 1.247 3.647" />
    <path
        d="M14.81 12.885c.29-.03.562-.17.738-.402.114-.148.197-.326.252-.572.107-.474.239-1.007.668-1.487.543-.606 1.218-.713 2.132-.598.844.108 3.044.65 3.422.745.045.012.092.01.137-.003a.525.525 0 00.355-.378c.032-.172-.036-.862-.048-1.104a12.348 12.348 0 01-.017-.73c.007-.543.038-1.128.037-1.68 0-.554-.032-1.075-.15-1.492-.3-1.028-1.465-1.309-2.876-1.313-1.41-.004-3.066.268-4.352.346-.656.037-1.297.08-1.913.12-.616.04-1.208.076-1.767.1-.635.029-1.317-.005-1.962-.013s-1.253.008-1.74.139c-.805.21-1.012 1.159-1.006 2.238.006 1.078.226 2.287.275 3.02.012.174.037.995.116 1.807.048.506.2 1.088.36 1.489a.694.694 0 00.711.432l3.075-.294 1.405-.14z"
        fill="#dc2f44" fill-opacity="1" stroke="#dc2f44" stroke-width="0" />
</svg>