<svg xmlns="http://www.w3.org/2000/svg" viewBox="0 0 1706.667 1365.333">
    <path d="M389.902 442.66c21.224 0 38.205-2.358 49.997-21.695 5.188-8.964 10.377-10.378 13.207 10.846l14.622 140.09c0 8.018-10.849 15.093-18.868-11.322-17.922-39.62-50.468-104.238-98.578-104.238v252.817c0 30.187 0 57.072 35.845 57.072 5.661 0 18.868 0 18.868 7.547 0 6.133-9.905 6.133-15.093 6.133H171.515c-5.188 0-15.093 0-15.093-6.133 0-7.547 13.205-7.547 18.866-7.547 35.847 0 35.847-26.885 35.847-57.072V456.341c-41.036 0-90.09 83.014-100.467 115.088-3.774 12.734-14.62 12.734-13.208-2.359l18.87-143.39c0-18.395 8.016-16.037 14.15-7.074 8.018 12.263 20.282 24.055 80.655 24.055z" fill="#13101b"/>
    <path d="M561.57 615.294c22.64-22.64 53.3-57.072 87.731-57.072 30.187 0 55.185 21.698 55.185 51.885 0 34.432-29.242 52.825-60.373 52.825-26.413 0-50.47-15.093-50.94-42.92 0-4.246.941-10.377-4.716-10.377-8.02 0-21.699 14.15-26.888 20.752v69.81c0 67.922 9.905 67.922 25.472 67.922 4.244 0 12.263 0 12.263 6.13 0 5.66-5.662 5.66-8.962 5.66H417.708c-3.3 0-8.962 0-8.962-5.66 0-6.13 8.02-6.13 12.264-6.13 15.566 0 25.471 0 25.471-67.923v-54.714c0-24.527 0-47.64-28.301-52.828-3.772-.471-10.847-.471-10.847-5.66 0-6.132 10.847-6.132 16.035-6.132 27.83-.942 100.468-9.904 125.938-20.755 1.886-1.413 6.132-1.885 8.963-1.885 4.716 0 5.187 3.302 5.187 7.546z" fill="#13101b"/>
    <path d="M830.69 706.712c0 67.195 10.015 67.195 25.75 67.195 4.295 0 12.4 0 12.4 6.063 0 5.6-5.72 5.6-9.06 5.6H685.232c-3.34 0-9.063 0-9.063-5.6 0-6.063 8.108-6.063 12.399-6.063 15.738 0 25.753 0 25.753-67.195v-55.528c0-20.998 10.375-51.078-14.424-55.744-4.77-.934-3.577 2.916-3.577-1.75 0-6.064 33.142-8.166 36.958-8.166 34.814-.466 56.872-3.866 86.92-17.398 2.383-.932 5.244-1.867 8.104-1.867 2.387 0 2.387 5.6 2.387 8.868z" fill="#13101b"/>
    <path d="M1137.454 565.296c3.775 0 8.02 0 8.02 5.662 0 4.244-3.304 5.66-7.076 6.132-38.678 5.188-69.337 74.052-83.486 106.125l-16.511 39.15c4.719 9.433 10.377 17.925 20.755 20.282 3.302.473 7.548.943 7.548 5.19 0 5.187-5.19 6.602-8.491 6.602-34.433 0-69.337 11.321-96.693 33.963-1.887.94-8.02 6.129-10.378 6.129-4.245 0-7.074-8.017-7.548-10.848l-18.865-48.11-27.357-64.62c-8.963-21.698-23.584-56.6-34.906-75.47-7.546-12.263-13.205-17.452-26.885-18.393-4.716-.472-10.377-.944-10.377-6.606 0-5.188 6.605-5.188 10.377-5.188h162.728c4.719 0 10.377 0 10.377 6.134 0 4.244-3.301 5.188-6.602 5.66-9.434 1.414-13.68 6.602-13.68 16.508 0 22.168 27.356 79.712 36.793 101.882l6.601 14.15c11.792-24.055 20.283-55.658 20.283-82.543 0-16.98-6.133-47.639-26.884-49.997-3.304-.472-6.605-1.888-6.605-6.132 0-5.662 7.546-5.662 11.321-5.662z" fill="#13101b"/>
    <path d="M1277.995 698.934c0 75.142 9.905 75.142 25.47 75.142 4.244 0 33.486 2.359 33.486 9.142 0 6.26-26.883 3.904-30.186 3.904h-172.632c-3.302 0-8.964 0-8.964-6.264 0-6.782 8.02-6.782 12.263-6.782 15.567 0 25.472 0 25.472-75.142v-62.1c0-23.483-.472-53.226-24.999-58.443-4.716-1.045-13.208-1.045-13.208-6.263 0-6.782 8.492-6.782 12.267-6.782 34.43-.523 100.936-6.263 130.653-21.396 2.358-1.043 5.188-2.087 8.016-2.087 2.362 0 2.362 6.263 2.362 9.916z" fill="#13101b"/>
    <path d="M1447.546 668.611c-37.262-.472-50.942 4.246-50.942 46.695 0 16.51 4.247 39.621 24.999 39.621 25.943 0 25.943-28.3 25.943-46.696zm0-48.11c0-43.867-13.68-46.698-27.358-46.698-7.073 0-24.525 2.831-24.525 9.907 0 7.544 14.148 10.847 14.148 27.357 0 25.94-41.036 33.018-60.847 33.018-20.281 0-45.28-8.019-45.28-33.018 0-47.638 101.41-49.056 133.486-49.056 108.957 0 125.464 29.243 125.464 71.696v50.94c0 29.244 0 64.622 16.984 64.622 16.978 0 19.809-18.87 26.412-18.87 2.358 0 3.302 2.831 3.302 5.19 0 8.02-9.905 21.226-14.152 26.414-17.452 20.754-44.336 28.772-71.221 28.772-29.719 0-65.563-9.905-72.639-41.034h-.944c-12.736 31.601-50.47 41.034-80.657 41.034-37.733 0-88.203-15.094-88.203-60.376 0-37.732 30.659-52.826 63.204-62.26 29.716-8.018 66.036-11.321 102.826-11.321z" fill="#13101b"/>
    <path d="M385.233 930.617c1.89 8.02 7.075 13.68 15.093 16.982 8.02 3.3 8.963 7.076.944 13.206-12.734 9.904-25 19.81-41.033 43.395-38.679 56.603-35.848 87.73-46.697 87.73-8.019 0-9.906-12.734-11.792-18.393l-87.73-235.84h-.946v153.768c0 80.656 34.432 117.918 67.45 122.635 3.774.472 8.491 1.888 8.491 6.133 0 7.546-8.964 7.546-14.152 7.546H138.548c-3.774 0-9.435 0-9.435-6.134 0-6.13 5.661-7.073 10.377-7.545 25.943-4.717 60.847-42.923 59.903-170.275v-73.582c0-60.375-12.736-66.034-32.547-66.034-4.716 0-11.79-.47-11.79-6.604 0-7.074 7.546-7.074 12.264-7.074h170.274c15.568 0 3.303 12.262 3.303 20.28 0 8.493 8.019 30.189 11.79 38.68l25.471 66.977 51.886-112.73c4.717-10.377 4.717-13.207 16.978-13.207h161.314c4.246 0 12.265 0 12.265 7.074 0 6.604-6.13 6.604-10.847 6.604-30.188 0-33.02 5.19-33.02 122.636v64.62c0 117.448 2.832 122.635 33.02 122.635 4.716 0 10.847 0 10.847 6.604 0 7.075-8.019 7.075-12.265 7.075H405.044c-5.187 0-11.318 0-11.318-6.602 0-7.077 10.372-7.077 14.62-7.077 12.735 0 29.243-2.828 29.243-122.635V816.473l-.944-1.416z" fill="#e9222e"/>
    <path d="M766.163 1012.69c-37.262-.472-50.942 4.245-50.942 46.695 0 16.51 4.247 39.621 25.002 39.621 25.94 0 25.94-28.299 25.94-46.695zm0-48.11c0-43.867-13.68-46.698-27.359-46.698-7.075 0-24.527 2.83-24.527 9.907 0 7.544 14.154 10.848 14.154 27.357 0 25.941-41.039 33.017-60.85 33.017-20.28 0-45.28-8.018-45.28-33.017 0-47.64 101.41-49.055 133.484-49.055 108.96 0 125.466 29.242 125.466 71.695v50.94c0 29.245 0 64.621 16.982 64.621 16.978 0 22.39-14.66 28.994-14.66 2.357 0 11.01 18.007 11.01 20.364 0 8.02-68.776 35.803-95.66 35.803-29.72 0-65.568-9.905-72.64-41.033h-.946c-12.73 31.6-50.467 41.033-80.655 41.033-37.736 0-88.203-15.093-88.203-60.375 0-37.734 30.656-52.828 63.202-62.26 29.717-8.02 66.036-11.322 102.828-11.322z" fill="#e9222e"/>
    <path d="M766.163 1012.69c-37.262-.472-50.942 4.245-50.942 46.695 0 16.51 4.247 39.621 25.002 39.621 25.94 0 25.94-28.299 25.94-46.695zm0-48.11c0-43.867-13.68-46.698-27.359-46.698-7.075 0-24.527 2.83-24.527 9.907 0 7.544 14.154 10.848 14.154 27.357 0 25.941-41.039 33.017-60.85 33.017-20.28 0-45.28-8.018-45.28-33.017 0-47.64 101.41-49.055 133.484-49.055 108.96 0 125.466 29.242 125.466 71.695v50.94c0 29.245 0 64.621 16.982 64.621 16.978 0 22.39-14.66 28.994-14.66 2.357 0 11.01 18.007 11.01 20.364 0 8.02-68.776 35.803-95.66 35.803-29.72 0-65.568-9.905-72.64-41.033h-.946c-12.73 31.6-50.467 41.033-80.655 41.033-37.736 0-88.203-15.093-88.203-60.375 0-37.734 30.656-52.828 63.202-62.26 29.717-8.02 66.036-11.322 102.828-11.322z" fill="none" stroke="#ed1c24" stroke-miterlimit="10" stroke-width="1.33333"/>
    <path d="M1133.306 1042.477c0 72.685-9.903 72.685-25.47 72.685-2.346 0-19.31.827-20.838.827-15.57 0-25.472 0-25.472-67.923V924.958h30.188c4.735 0 8.75.36 11.775.137 1.725.276 3.437.487 4.821.784 24.527 5.047 24.996 33.818 24.996 56.532zm140.56 72.685c-15.564 0-25.472 0-25.472-72.685v-142.34c0-3.532 0-9.59-2.357-9.59-2.828 0-5.66 1.01-8.019 2.018-29.713 14.638-96.223 20.19-130.652 20.697-1.237 0-2.984.004-4.77.236-2.391-.33-5.087-.332-7.58-.332h-19.81c-34.904 0-67.45-26.413-67.45-62.733 0-30.66 24.053-56.6 56.129-56.6 3.301 0 8.018 1.413 8.018 4.717 0 6.601-33.02 8.96-33.02 42.45 0 27.83 25.946 42.45 51.416 42.45 27.83 0 48.842-16.841 48.842-47.501 0-44.34-46.139-68.254-82.931-68.254-39.147 0-109.772 30.382-109.772 81.796v30.187c0 20.281-1.415 32.547-23.588 32.547-4.716 0-14.15-.474-14.15 6.6 0 6.133 9.434 6.133 16.982 6.133h20.756v123.108c0 67.923-9.908 67.923-25.472 67.923-4.245 0-12.265 0-12.265 6.129 0 5.661 5.661 5.661 8.964 5.661H1277.167c3.304 0 8.964 0 8.964-6.057 0-6.56-8.02-6.56-12.265-6.56" fill="#e9222e"/>
    <path d="M1133.306 1042.477c0 72.685-9.903 72.685-25.47 72.685-2.346 0-19.31.827-20.838.827-15.57 0-25.472 0-25.472-67.923V924.958h30.188c4.735 0 8.75.36 11.775.137 1.725.276 3.437.487 4.821.784 24.527 5.047 24.996 33.818 24.996 56.532zm140.56 72.685c-15.564 0-25.472 0-25.472-72.685v-142.34c0-3.532 0-9.59-2.357-9.59-2.828 0-5.66 1.01-8.019 2.018-29.713 14.638-96.223 20.19-130.652 20.697-1.237 0-2.984.004-4.77.236-2.391-.33-5.087-.332-7.58-.332h-19.81c-34.904 0-67.45-26.413-67.45-62.733 0-30.66 24.053-56.6 56.129-56.6 3.301 0 8.018 1.413 8.018 4.717 0 6.601-33.02 8.96-33.02 42.45 0 27.83 25.946 42.45 51.416 42.45 27.83 0 48.842-16.841 48.842-47.501 0-44.34-46.139-68.254-82.931-68.254-39.147 0-109.772 30.382-109.772 81.796v30.187c0 20.281-1.415 32.547-23.588 32.547-4.716 0-14.15-.474-14.15 6.6 0 6.133 9.434 6.133 16.982 6.133h20.756v123.108c0 67.923-9.908 67.923-25.472 67.923-4.245 0-12.265 0-12.265 6.129 0 5.661 5.661 5.661 8.964 5.661H1277.167c3.304 0 8.964 0 8.964-6.057 0-6.56-8.02-6.56-12.265-6.56z" fill="none" stroke="#ed1c24" stroke-miterlimit="10" stroke-width="1.33333"/>
    <path d="M1422.905 1052.311c0 18.396 0 46.695-25.94 46.695-20.755 0-25.001-23.11-25.001-39.62 0-42.45 13.68-47.167 50.94-46.696zm158.485 22.168c-6.605 0-9.437 18.868-26.414 18.868-16.983 0-16.983-35.376-16.983-64.62v-50.941c0-42.452-16.507-71.695-125.465-71.695-32.076 0-133.484 1.415-133.484 49.055 0 24.999 25 33.019 45.28 33.019 19.81 0 60.849-7.078 60.849-33.02 0-16.508-14.153-19.811-14.153-27.356 0-7.076 17.452-9.907 24.525-9.907 13.68 0 27.36 2.83 27.36 46.697v36.318c-36.792 0-73.11 3.302-102.828 11.322-32.545 9.432-63.201 24.526-63.201 62.26 0 45.282 50.47 60.375 88.202 60.375 30.188 0 67.919-9.433 80.655-41.035h.944c7.075 31.13 42.923 41.035 72.641 41.035 26.884 0 53.77-8.019 71.222-28.77 4.245-5.189 14.149-18.398 14.149-26.415 0-2.36-.94-5.19-3.299-5.19" fill="#e9222e"/>
    <path d="M1422.905 1052.311c0 18.396 0 46.695-25.94 46.695-20.755 0-25.001-23.11-25.001-39.62 0-42.45 13.68-47.167 50.94-46.696zm158.485 22.168c-6.605 0-9.437 18.868-26.414 18.868-16.983 0-16.983-35.376-16.983-64.62v-50.941c0-42.452-16.507-71.695-125.465-71.695-32.076 0-133.484 1.415-133.484 49.055 0 24.999 25 33.019 45.28 33.019 19.81 0 60.849-7.078 60.849-33.02 0-16.508-14.153-19.811-14.153-27.356 0-7.076 17.452-9.907 24.525-9.907 13.68 0 27.36 2.83 27.36 46.697v36.318c-36.792 0-73.11 3.302-102.828 11.322-32.545 9.432-63.201 24.526-63.201 62.26 0 45.282 50.47 60.375 88.202 60.375 30.188 0 67.919-9.433 80.655-41.035h.944c7.075 31.13 42.923 41.035 72.641 41.035 26.884 0 53.77-8.019 71.222-28.77 4.245-5.189 14.149-18.398 14.149-26.415 0-2.36-.94-5.19-3.299-5.19z" fill="none" stroke="#ed1c24" stroke-miterlimit="10" stroke-width="1.33333"/>
    <path d="M1231.159 513.255c1.93-8.378 4.548-13.137 8.278-23.3 1.774-4.67 10.168-20.388 8.344-23.213-2.2-3.415-16.978-3.465-19.129-4.183-29.875-9.446-15.701-52.5-12.195-78.025 2.663-19.092 1.607-64.508 23.448-65.632 13.202-.747 31.435 5.625 47.915 8.264 14.483 2.39 30.816 4.45 47.892 7.003 33.452 4.873 88.081 3.684 90.312 31.74.808 11.338-3.932 27.137-7.01 41.07-2.991 13.768-3.885 27.804-5.587 40.99-1.275 10.3-5.254 34.568-16.552 38.302-16.032 5.32-40.232-4.284-54.736-6.952-14.95-2.83-35.068-11.621-51.94-8.38-23.92 4.59-34.53 38.678-59.04 42.316" fill="#e9222e" fill-rule="evenodd"/>
    <path d="M1231.159 513.255c1.93-8.378 4.548-13.137 8.278-23.3 1.774-4.67 10.168-20.388 8.344-23.213-2.2-3.415-16.978-3.465-19.129-4.183-29.875-9.446-15.701-52.5-12.195-78.025 2.663-19.092 1.607-64.508 23.448-65.632 13.202-.747 31.435 5.625 47.915 8.264 14.483 2.39 30.816 4.45 47.892 7.003 33.452 4.873 88.081 3.684 90.312 31.74.808 11.338-3.932 27.137-7.01 41.07-2.991 13.768-3.885 27.804-5.587 40.99-1.275 10.3-5.254 34.568-16.552 38.302-16.032 5.32-40.232-4.284-54.736-6.952-14.95-2.83-35.068-11.621-51.94-8.38-23.92 4.59-34.53 38.678-59.04 42.316z" fill="none" stroke="#ed1c24" stroke-miterlimit="10" stroke-width="1.33333"/>
    <path d="M1198.275 550.063c-11.312-4.498-19.544-11.708-30.095-20.576-5.103-4.278-18.544-20.134-27.315-21.974-10.737-2.266-40.476 6.012-53.414 8.08-17.704 2.816-39.648 9.768-52.047 5.32-21.701-7.708-20.675-59.812-24.379-90.388-1.87-15.032-.505-37.182 4.223-42.45 6.341-10.082 43.237-13.18 45.213-13.542 34.683-3.66 58.608-10.006 93.11-12.09 20.728-1.265 46.828-9.32 51.996 6.983 7.637 24.032-13.976 71.017-.25 91.705 3.024 4.59 16.22 8.574 17.82 12.386 3.154 7.865-3.04 16.296-4.236 17.786-7.252 9.01-33.352 5.299-36.996 10.879-4.405 6.76 20.374 39.807 16.37 47.881" fill="#13101b" fill-rule="evenodd"/>
    <path d="M1200.146 348.826c3.801-.405 7.367-2.241 9.688-5.277 1.487-1.948 2.576-4.286 3.307-7.522 1.404-6.22 3.134-13.22 8.772-19.52 7.118-7.956 15.982-9.353 27.977-7.84 11.09 1.41 39.964 8.538 44.927 9.778.597.15 1.216.138 1.805-.039 2.49-.75 4.297-2.983 4.664-4.965.419-2.259-.483-11.32-.643-14.5-.158-3.179-.245-6.37-.216-9.576.09-7.135.492-14.81.486-22.068-.008-7.26-.426-14.103-1.974-19.57-3.945-13.509-19.23-17.193-37.746-17.248-18.516-.053-40.263 3.524-57.135 4.542-8.619.486-17.032 1.056-25.121 1.58-8.092.524-15.86 1.001-23.194 1.305-8.336.384-17.292-.056-25.76-.165-8.468-.11-16.448.112-22.834 1.821-10.58 2.77-13.3 15.219-13.216 29.379.082 14.161 2.969 30.032 3.609 39.65.156 2.294.49 13.062 1.519 23.724.64 6.648 2.624 14.287 4.737 19.552a9.116 9.116 0 009.335 5.667l40.36-3.855 18.449-1.845z" fill="#e9222e" fill-rule="evenodd"/>
    <path d="M1200.146 348.826c3.801-.405 7.367-2.241 9.688-5.277 1.487-1.948 2.576-4.286 3.307-7.522 1.404-6.22 3.134-13.22 8.772-19.52 7.118-7.956 15.982-9.353 27.977-7.84 11.09 1.41 39.964 8.538 44.927 9.778.597.15 1.216.138 1.805-.039 2.49-.75 4.297-2.983 4.664-4.965.419-2.259-.483-11.32-.643-14.5-.158-3.179-.245-6.37-.216-9.576.09-7.135.492-14.81.486-22.068-.008-7.26-.426-14.103-1.974-19.57-3.945-13.509-19.23-17.193-37.746-17.248-18.516-.053-40.263 3.524-57.135 4.542-8.619.486-17.032 1.056-25.121 1.58-8.092.524-15.86 1.001-23.194 1.305-8.336.384-17.292-.056-25.76-.165-8.468-.11-16.448.112-22.834 1.821-10.58 2.77-13.3 15.219-13.216 29.379.082 14.161 2.969 30.032 3.609 39.65.156 2.294.49 13.062 1.519 23.724.64 6.648 2.624 14.287 4.737 19.552a9.116 9.116 0 009.335 5.667l40.36-3.855 18.449-1.845z" fill="none" stroke="#ed1c24" stroke-miterlimit="10" stroke-width="1.33333"/>
</svg>