<?xml version="1.0" encoding="UTF-8"?>
<svg id="Layer_1" data-name="Layer 1" xmlns="http://www.w3.org/2000/svg" viewBox="0 0 1132.7 681.69">
  <defs>
    <style>
      .cls-1 {
        fill: #dc2f44;
      }

      .cls-2 {
        fill: #141e21;
      }
    </style>
  </defs>
  <path class="cls-1" d="m843.11,616.27h-5.77c-10.36,0-16.67-7.08-16.67-20.64v-114.38c0-.73-.59-1.32-1.32-1.32h-97.86c-14.7,0-21.47-4.6-21.47-21.93v-23.05c0-35.08,10.71-47.76,34.19-49.24,16.44-1.03,26.69,5.47,31.44,10.13-2.88.83-5.63,1.98-8.29,3.24-25.2,11.81-31.59,34.07-22.19,51.83,9.93,18.76,35.77,22.03,54.91,13.65,23.3-10.2,33.5-30.24,25.6-51.72-.6-1.64-1.4-3.17-2.34-4.61-13.65-24.06-46.07-35.24-90.84-35.24-59.16,0-102.42,26.14-102.42,74.84v13.96c0,11.72-5.45,18.13-15.47,18.13h-12.27c-.73,0-1.32.59-1.32,1.32v7.6c0,.73.59,1.32,1.32,1.32h27.74v102.54c0,15.09-6.28,23.55-19.58,23.55h-7.98c-9.41,0-15.35-6.74-15.35-19.97v-54.77c0-.41,0-.82,0-1.23-.3-24.42-9.53-39.95-26.82-49.55-16.33-9.07-54.11-16.62-91.12-15.27-36.92,1.35-51.15,5.58-60.03,16.39-.05.06-.1.12-.14.18-.11.13-.22.26-.32.4h.01c-4.17,5.24-6.25,11.63-5.45,18.04,1.91,15.16,18.1,23.65,40.13,21.13,19.78-2.27,33.42-13.87,31.52-29.02-.76-6.01-3.89-10.74-8.68-14.26-.91-.67-.63-2.09.48-2.32,20.04-4.04,40.51,1.88,40.51,30.54v15.31s-36.55,1.68-79.57,12.97c-25.98,6.82-39.42,21.22-39.42,41.52,0,28.93,22.12,45.13,54.16,45.13,27.43,0,44.25-5.15,66.23-16.77,2.01-1.06,4.07-2.18,6.18-3.36h0c9.93,11.94,21.6,17.61,36.71,18.95,18.46,1.64,33.35-3.8,61.89-3.8h239.66c.73,0,1.32-.59,1.32-1.32v-7.6c0-.73-.59-1.32-1.32-1.32Zm-345.85-37.65c0,27.61-9.9,32.89-19.97,32.89-11.44,0-17.84-7.2-17.84-21.95v-15.85c0-9.96,1.23-22.82,14.26-28.24,10.76-4.47,23.54-2.93,23.54-2.93v36.08Zm243.49,17.01c0,13.32-6.1,20.64-16.67,20.64h-4.47c-12.11,0-19.58-8.59-19.58-23.55v-99.87c0-1.48,1.2-2.67,2.67-2.67h24.17c8.77,0,13.88,5.6,13.88,18.23v87.22Z"/>
  <path class="cls-2" d="m1062.03,368.58l-6.99,2.44c-7.05,2.51-13.46-2.02-13.46-15.92v-48.74c0-.41,0-.82,0-1.23-.3-24.42-9.53-39.95-26.82-49.55-16.33-9.07-51.46-16.62-88.47-15.27-36.92,1.35-50.92,6.21-60.03,16.39-.05.06-.36.44-.47.57h.01c-4.17,5.24-6.25,11.63-5.45,18.04,1.91,15.15,18.1,23.65,40.13,21.13,19.78-2.27,33.42-13.87,31.52-29.02-.72-5.69-3.57-10.24-7.94-13.69-1.19-.94-.72-2.82.77-3.1,19.3-3.61,36.82,2.62,36.82,30.75v15.48c-8.74.64-38.32,3.36-74.28,12.8-25.98,6.82-39.42,21.22-39.42,41.52,0,28.93,22.12,45.13,54.16,45.13,29.19,0,43.97-5.84,67.91-19.09,9.85,13.08,20.2,19.09,35.9,19.09,19.19,0,34.48-6.68,56.69-16.81.71-.32,1.17-1.03,1.17-1.81v-7.87c0-.91-.9-1.55-1.76-1.25Zm-100.37-7.8c0,3.81-1.16,7.6-3.6,10.52-3.28,3.93-7.58,5.03-12.24,5.03-11.44,0-16.67-7.54-16.67-20.79v-17.01c0-9.96,1.23-22.82,14.26-28.24,7.42-3.09,14.54-3.31,18.25-3.15v53.64Z"/>
  <path class="cls-2" d="m86.49,178.61c4.5-5.9,11.5-9.36,18.92-9.36h8.04v182.84c0,9.45-3.43,19.6-11.32,24.8h0c-3.89,2.57-9.77,3.93-14.43,3.93h-3.3c-.73,0-1.32.59-1.32,1.32v7.86c0,.73.59,1.32,1.32,1.32h283.45c.73,0,1.32-.59,1.32-1.32v-7.6c0-.73-.59-1.32-1.32-1.32h-10.71c-12.81,0-15.13-9.42-15.13-17.77v-30.85c0-38.14,11.24-60.86,32.24-66.6,0,0,0,0,0,0,2.21-.55,2.93.98,1.62,2.54,0,0,0,0,0,0-14.23,16.43-16.52,42.17.2,56.25,15.46,13.02,41.48,10.69,55.44-8.75,11.28-15.71,11.19-35.52,5.36-49.17-10.81-25.3-38.91-33.3-62.55-21.06-20.17,10.44-30.89,30.8-34.52,38.94-.35.79-1.53.55-1.55-.32l-1.18-38.3c-.03-.71-.61-1.27-1.32-1.27h-91.61c-.73,0-1.32.59-1.32,1.32v7.6c0,.73.59,1.32,1.32,1.32h4.56c8.38,0,13.37,8.11,13.37,17.95v87.93c0,10.07-4.38,19.94-17.55,19.94h-16.88c-4.63,0-10.54-1.21-14.44-3.7-8.11-5.17-11.68-15.44-11.68-25.04v-182.84h8.04c7.42,0,14.42,3.46,18.93,9.36l13.26,17.36c5.39,7.56,12.44,18.88,20.21,34.44.22.45.69.74,1.19.74h7.57c.76,0,1.36-.63,1.32-1.39l-3.41-78.95c-.03-.7-.62-1.26-1.32-1.26h-5.64s-.07,0-.11,0l-29.73,8.45H83.16l-29.73-8.45s-.07,0-.11,0h-5.64c-.71,0-1.29.55-1.32,1.26l-3.41,78.95c-.04.76.56,1.39,1.32,1.39h7.86c.5,0,.96-.29,1.19-.74,7.77-15.56,14.53-26.88,19.92-34.44l13.26-17.36Z"/>
  <path class="cls-2" d="m450.44,286.08v72.32c0,15.86-8.33,22.69-18.71,22.69h-7.13c-.73,0-1.32.59-1.32,1.32v7.6c0,.73.59,1.32,1.32,1.32h128.2c.73,0,1.32-.59,1.32-1.32v-7.6c0-.73-.59-1.32-1.32-1.32h-6.46c-10.53,0-15.98-7.45-15.98-21.36v-104.73h5.65c9.3,0,14.87,5.35,20.61,18.48l47.32,117.86,5.73,14.29c.2.5.69.83,1.23.83h5.59c1.63,0,3.15-.77,4.17-2.03,14.57-18.09,34.9-28.25,56.89-33.1.89-.2,1.62-.83,1.92-1.68l36.76-102.71c2.99-8.1,7.39-11.93,15.05-11.93h2.97c7.53,0,13.11,5.35,13.11,17.65v92.1c0,1.39,1.08,2.55,2.47,2.64l1.07.1c27.98,2.1,49.7,10.65,63.69,21.26,2.19,1.66,4.85,2.6,7.6,2.6h27.53c.73,0,1.32-.59,1.32-1.32v-7.6c0-.73-.59-1.32-1.32-1.32h-6.27c-11.08,0-16.17-8.74-16.17-22.74v-112.28c0-.73-.59-1.32-1.32-1.32h-157.57c-.73,0-1.32.59-1.32,1.32v7.6c0,.73.59,1.32,1.32,1.32h2.46c7.72,0,11.09,3.39,14.32,10.89l4.95,12.18c3,7.38,3.17,15.6.48,23.1l-11.83,33.04-5.56,17c-.33,1-1.73,1.05-2.12.07l-33.4-83.28c-3.17-7.82-1-12.99,5.29-12.99h4.5c.73,0,1.32-.59,1.32-1.32v-7.6c0-.73-.59-1.32-1.32-1.32h-209.17c-1.89,0-2.8,2.29-1.43,3.6,8.09,7.7,13.56,20.05,13.56,37.74Z"/>
  <path class="cls-1" d="m1058.06,603.77l-6.99,2.44c-7.05,2.51-13.46-2.02-13.46-15.92v-48.74c0-.41,0-.82,0-1.23-.3-24.42-9.53-39.95-26.82-49.55-16.33-9.07-52.79-16.62-89.79-15.27-36.92,1.35-50.92,6.21-60.03,16.39-.05.06-.36.44-.47.57h.01c-4.17,5.24-6.25,11.63-5.45,18.04,1.91,15.15,18.1,23.65,40.13,21.13,19.78-2.27,33.42-13.87,31.52-29.02-.72-5.69-3.57-10.24-7.94-13.69-1.19-.94-.72-2.82.77-3.09,19.3-3.61,38.15,2.62,38.15,30.75v15.48c-8.74.64-39.64,3.36-75.6,12.8-25.98,6.82-39.42,21.22-39.42,41.52,0,28.93,22.12,45.13,54.16,45.13,29.19,0,45.3-5.84,69.23-19.09,9.85,13.08,20.2,19.09,35.9,19.09,19.19,0,34.48-6.68,56.69-16.81.71-.32,1.17-1.03,1.17-1.81v-7.87c0-.91-.9-1.55-1.76-1.25Zm-100.37-7.8c0,3.81-1.16,7.6-3.6,10.52-3.28,3.93-8.91,5.03-13.56,5.03-11.44,0-16.67-7.54-16.67-20.79v-17.01c0-9.96,1.23-22.82,14.26-28.24,7.42-3.09,15.87-3.31,19.57-3.15v53.64Z"/>
  <path class="cls-1" d="m377.76,616.01h-5.12c-4.38,0-8.62-1.53-11.99-4.32-6.64-5.49-10.48-13.66-10.48-24.93v-141.74c0-11.13,2.76-18.54,7.85-25.04l.96-1.22c2.75-3.52,8.67-6.4,13.14-6.4h2.44c.73,0,1.32-.59,1.32-1.32v-7.86c0-.73-.59-1.32-1.32-1.32h-118.68c-1.17,0-1.94,1.23-1.42,2.28l2.08,4.24c1.68,3.43,1.68,7.44,0,10.86l-25.34,51.35-6.98,16.57c-.5,1.18-2.16,1.18-2.66,0l-26.96-63.59c-3.25-7-.36-11.37,4.65-11.37h4.21c.73,0,1.32-.59,1.32-1.32v-7.69c0-.73-.59-1.32-1.32-1.32H74.39c-.73,0-1.32.59-1.32,1.32v7.86c0,.73.59,1.32,1.32,1.32h4.05c4.27,0,9.22,1.47,11.66,4.05,4.8,5.1,7.47,12.19,7.47,22.39v135.76c0,11.07-5.78,27.09-12.84,35.62-3.06,3.69-7.6,5.83-12.39,5.83h-4.33c-.73,0-1.32.59-1.32,1.32v7.86c0,.73.59,1.32,1.32,1.32h72.9c.73,0,1.32-.59,1.32-1.32v-7.86c0-.73-.59-1.32-1.32-1.32h-3.24c-4.57,0-8.9-2.04-11.81-5.55-8.41-10.15-13.01-22.91-13.01-36.09v-113.06l-.84-20.48c-.03-.8,1.06-1.06,1.39-.33l74.12,162.67c.23.51.75.84,1.31.84h4.37c2.86,0,5.44-1.68,6.6-4.3l38.82-85.52c.28-.64.06-1.4-.52-1.79l-6.8-4.1c-.6-.4-.81-1.18-.5-1.83l29.82-61.37c.33-.76,1.46-.52,1.46.31v139.15c0,10.79-3.99,19.73-10.84,25.22l-2.62,2.1c-3.34,2.67-7.48,4.13-11.76,4.13h-3.84c-.73,0-1.32.59-1.32,1.32v7.86c0,.73.59,1.32,1.32,1.32h144.72c.73,0,1.32-.59,1.32-1.32v-7.86c0-.73-.59-1.32-1.32-1.32Z"/>
  <path class="cls-2" d="m488.71,233.05c24.08,0,43.61-16.37,43.61-36.56s-19.52-36.56-43.61-36.56-43.61,16.37-43.61,36.56,19.52,36.56,43.61,36.56Z"/>
  <path class="cls-1" d="m787.57,110.95c-.96,6.14-2.81,15.82-4.04,24.78-1.48,10.81-2.41,20.34-2.98,27.51-.62,7.81,4.71,14.84,12.41,16.33,4.12.8,15.02,2.87,15.02,2.87-.68,8.84-6.23,20.65-8.75,25.6-.55,1.07.24,2.34,1.44,2.34h.62c1.25,0,2.48-.35,3.54-1.01,3.81-2.36,13.47-9.11,24.96-22.91l4.39.79c18.98,3.4,35.05,6.08,45.61,7.79,7.54,1.22,14.71-3.67,16.33-11.13,1.49-6.88,3.38-15.82,5.27-25.31,1.65-8.32,3.75-18.25,4.84-24.8,1.52-9.14-4.4-17.86-13.46-19.83-10.52-2.29-25.61-5.45-43.4-8.81-17.79-3.36-31.58-6.12-42.07-7.62-9.52-1.36-18.34,4.59-19.72,13.43Z"/>
  <path class="cls-2" d="m668.32,177.19c1.58,10.77,3.4,19.77,4.93,26.45,1.75,7.61,8.85,12.72,16.62,11.98,10.12-.97,25.52-2.77,44.4-5.96,3.16-.54,9.11-1.59,9.11-1.59,10.43,13.58,20.33,19.91,23.87,21.9.85.48,1.8.72,2.77.72h.91c1.25,0,2.07-1.32,1.5-2.43-2.35-4.61-7.17-14.97-8.2-24.14,0,0,10.11-2.1,13.87-2.93,6.1-1.35,10.05-6.31,11.27-12.41.22-1.08-.49-2.15-1.56-2.41-11.09-2.65-16.71-11.57-16.21-22.21.45-9.59,1.73-19.3,2.61-28.56.25-2.56.72-7.42.96-9.82.08-.86-.46-1.67-1.31-1.88-2.18-.55-4.73-.65-7.96-.51-10.94.49-24.95,1.73-42.72,4.09-20.35,2.7-36.17,5.76-46.35,7.98-7.55,1.65-12.65,8.72-11.81,16.4.71,6.42,1.76,14.99,3.28,25.35Z"/>
  <path class="cls-1" d="m717.57,118.75c.12.84.9,1.42,1.74,1.31,1.03-.14,2.08-.25,3.14-.43,14.66-2.48,29.56-4.46,43.45-5.57.72-.06,1.43-.09,2.15-.09,2.5,0,4.61,0,6.69.14,1.37.09,2.43-.53,2.79-2.19.36-1.62.59-2.56.91-3.82,2.99-11.92,12.13-19.23,24.1-19.23,1.22,0,2.73.06,3.95.22,9.8,1.3,14.77,3.27,23.54,5.09,1.07.22,2.07-.62,2.01-1.71-.29-5.62-1.09-19.48-1.51-24.93-.65-8.44-7.76-14.89-16.22-14.7-9.45.21-23.6.63-42.84,1.46-20.07.86-34.94,2.19-44.68,3.27-8.14.91-14.13,7.97-13.79,16.15.3,7.21,1.05,16.31,2.38,27.84.82,7.12,1.56,12.76,2.2,17.2Z"/>
</svg>